solid CurtainSlideV180
facet normal 1.0 -0.0 -0.0
outer loop
vertex 2.21338445976703 9.96156250000005 6.858
vertex 2.21338445976703 14.2795625 11.77925
vertex 2.21338445976703 9.96156250000005 11.77925
endloop
endfacet
facet normal 1.0 -0.0 -0.0
outer loop
vertex 2.21338445976703 14.2795625 11.77925
vertex 2.21338445976703 9.96156250000005 6.858
vertex 2.21338445976703 14.2795625 6.858
endloop
endfacet
facet normal -0.0 1.0 1.14603667058081e-015
outer loop
vertex 0.943384459767027 14.2795625 11.77925
vertex 2.21338445976703 14.2795625 6.858
vertex 0.943384459767027 14.2795625 6.858
endloop
endfacet
facet normal -0.0 1.0 1.14603667058081e-015
outer loop
vertex 2.21338445976703 14.2795625 6.858
vertex 0.943384459767027 14.2795625 11.77925
vertex 2.21338445976703 14.2795625 11.77925
endloop
endfacet
facet normal 1.0 -0.0 -0.0
outer loop
vertex 0.943384459767027 14.2795625 6.858
vertex 0.943384459767027 15.5495625 11.77925
vertex 0.943384459767027 14.2795625 11.77925
endloop
endfacet
facet normal 1.0 -0.0 -0.0
outer loop
vertex 0.943384459767027 15.5495625 11.77925
vertex 0.943384459767027 14.2795625 6.858
vertex 0.943384459767027 15.5495625000001 6.858
endloop
endfacet
facet normal -6.57618951436767e-015 1.0 5.73018335290404e-016
outer loop
vertex -3.50161554023297 16.8195625 11.77925
vertex -3.07280087843121 16.8195625000001 6.858
vertex -3.50161554023297 16.8195625000001 6.858
endloop
endfacet
facet normal -6.57618951436767e-015 1.0 5.73018335290404e-016
outer loop
vertex -3.07280087843121 16.8195625000001 6.858
vertex -3.50161554023297 16.8195625 11.77925
vertex -3.07280087843121 16.8195625000001 11.77925
endloop
endfacet
facet normal -1.0 0.0 0.0
outer loop
vertex -3.50161554023297 16.8195625 11.77925
vertex -3.50161554023297 15.5495625000001 6.858
vertex -3.50161554023297 15.5495625 11.77925
endloop
endfacet
facet normal -1.0 0.0 0.0
outer loop
vertex -3.50161554023297 15.5495625000001 6.858
vertex -3.50161554023297 16.8195625 11.77925
vertex -3.50161554023297 16.8195625000001 6.858
endloop
endfacet
facet normal 0.0 -1.0 -1.14603667058081e-015
outer loop
vertex -2.23161554023298 15.5495625 11.77925
vertex -3.50161554023297 15.5495625000001 6.858
vertex -2.23161554023298 15.5495625000001 6.858
endloop
endfacet
facet normal 0.0 -1.0 -1.14603667058081e-015
outer loop
vertex -3.50161554023297 15.5495625000001 6.858
vertex -2.23161554023298 15.5495625 11.77925
vertex -3.50161554023297 15.5495625 11.77925
endloop
endfacet
facet normal -1.0 0.0 0.0
outer loop
vertex -2.23161554023298 15.5495625 11.77925
vertex -2.23161554023298 14.2795625 6.858
vertex -2.23161554023298 14.2795625 11.77925
endloop
endfacet
facet normal -1.0 0.0 0.0
outer loop
vertex -2.23161554023298 14.2795625 6.858
vertex -2.23161554023298 15.5495625 11.77925
vertex -2.23161554023298 15.5495625000001 6.858
endloop
endfacet
facet normal -0.0 1.0 1.14603667058081e-015
outer loop
vertex -3.50161554023297 14.2795625 11.77925
vertex -2.23161554023298 14.2795625 6.858
vertex -3.50161554023297 14.2795625 6.858
endloop
endfacet
facet normal -0.0 1.0 1.14603667058081e-015
outer loop
vertex -2.23161554023298 14.2795625 6.858
vertex -3.50161554023297 14.2795625 11.77925
vertex -2.23161554023298 14.2795625 11.77925
endloop
endfacet
facet normal 0.0 -1.0 -2.86509167645202e-016
outer loop
vertex 2.21338445976703 9.96156250000005 11.77925
vertex -3.50161554023297 9.96156250000005 6.858
vertex 2.21338445976703 9.96156250000005 6.858
endloop
endfacet
facet normal 0.0 -1.0 -2.86509167645202e-016
outer loop
vertex -3.50161554023297 9.96156250000005 6.858
vertex 2.21338445976703 9.96156250000005 11.77925
vertex -3.50161554023297 9.96156250000005 11.77925
endloop
endfacet
facet normal -1.0 0.0 0.0
outer loop
vertex -3.50161554023297 14.2795625 11.77925
vertex -3.50161554023297 9.96156250000005 6.858
vertex -3.50161554023297 9.96156250000005 11.77925
endloop
endfacet
facet normal -1.0 0.0 0.0
outer loop
vertex -3.50161554023297 9.96156250000005 6.858
vertex -3.50161554023297 14.2795625 11.77925
vertex -3.50161554023297 14.2795625 6.858
endloop
endfacet
facet normal 0.0 -1.0 -1.14603667058081e-015
outer loop
vertex 2.21338445976703 15.5495625 11.77925
vertex 0.943384459767027 15.5495625000001 6.858
vertex 2.21338445976703 15.5495625000001 6.858
endloop
endfacet
facet normal 0.0 -1.0 -1.14603667058081e-015
outer loop
vertex 0.943384459767027 15.5495625000001 6.858
vertex 2.21338445976703 15.5495625 11.77925
vertex 0.943384459767027 15.5495625 11.77925
endloop
endfacet
facet normal 1.0 -0.0 -0.0
outer loop
vertex 2.21338445976703 15.5495625000001 6.858
vertex 2.21338445976703 16.8195625 11.77925
vertex 2.21338445976703 15.5495625 11.77925
endloop
endfacet
facet normal 1.0 -0.0 -0.0
outer loop
vertex 2.21338445976703 16.8195625 11.77925
vertex 2.21338445976703 15.5495625000001 6.858
vertex 2.21338445976703 16.8195625000001 6.858
endloop
endfacet
facet normal 9.96855619318196e-015 1.0 5.73018335290404e-016
outer loop
vertex 1.93049830976703 16.8195625000001 11.77925
vertex 2.21338445976703 16.8195625000001 6.858
vertex 1.93049830976703 16.8195625000001 6.858
endloop
endfacet
facet normal 9.96855619318196e-015 1.0 5.73018335290404e-016
outer loop
vertex 2.21338445976703 16.8195625000001 6.858
vertex 1.93049830976703 16.8195625000001 11.77925
vertex 2.21338445976703 16.8195625 11.77925
endloop
endfacet
facet normal 0.636484004161649 -0.771289901688304 0.0
outer loop
vertex 3.47248472780003 19.1337995847797 11.77925
vertex 1.75692490577911 17.7180849714954 6.858
vertex 3.47248472780003 19.1337995847797 6.858
endloop
endfacet
facet normal 0.636484004161649 -0.771289901688304 0.0
outer loop
vertex 1.75692490577911 17.7180849714954 6.858
vertex 3.47248472780003 19.1337995847797 11.77925
vertex 1.75692490577911 17.7180849714954 11.77925
endloop
endfacet
facet normal 0.906767414506017 -0.421631184793146 -0.0
outer loop
vertex 4.41030787154776 21.1506984717471 6.858
vertex 3.47248472780003 19.1337995847797 11.77925
vertex 3.47248472780003 19.1337995847797 6.858
endloop
endfacet
facet normal 0.906767414506017 -0.421631184793146 -0.0
outer loop
vertex 3.47248472780003 19.1337995847797 11.77925
vertex 4.41030787154776 21.1506984717471 6.858
vertex 4.41030787154776 21.1506984717471 11.77925
endloop
endfacet
facet normal 0.999946145563893 0.0103781487710575 -0.0
outer loop
vertex 4.38722402846928 23.374852357023 6.858
vertex 4.41030787154776 21.1506984717471 11.77925
vertex 4.41030787154776 21.1506984717471 6.858
endloop
endfacet
facet normal 0.999946145563893 0.0103781487710575 -0.0
outer loop
vertex 4.41030787154776 21.1506984717471 11.77925
vertex 4.38722402846928 23.374852357023 6.858
vertex 4.38722402846928 23.374852357023 11.77925
endloop
endfacet
facet normal 0.897821054957279 0.440360481055463 -0.0
outer loop
vertex 3.40774180414495 25.3718520919833 6.858
vertex 4.38722402846928 23.374852357023 11.77925
vertex 4.38722402846928 23.374852357023 6.858
endloop
endfacet
facet normal 0.897821054957279 0.440360481055463 -0.0
outer loop
vertex 4.38722402846928 23.374852357023 11.77925
vertex 3.40774180414495 25.3718520919833 6.858
vertex 3.40774180414495 25.3718520919833 11.77925
endloop
endfacet
facet normal 0.620338637376701 0.78433409652878 -0.0
outer loop
vertex 1.66316812296427 26.7516549909985 11.77925
vertex 3.40774180414495 25.3718520919833 6.858
vertex 1.66316812296427 26.7516549909985 6.858
endloop
endfacet
facet normal 0.620338637376701 0.78433409652878 -0.0
outer loop
vertex 3.40774180414495 25.3718520919833 6.858
vertex 1.66316812296427 26.7516549909985 11.77925
vertex 3.40774180414495 25.3718520919833 11.77925
endloop
endfacet
facet normal 0.221695188131273 0.975116015435825 -0.0
outer loop
vertex -0.505756757588484 27.2447657612301 11.77925
vertex 1.66316812296427 26.7516549909985 6.858
vertex -0.505756757588484 27.2447657612301 6.858
endloop
endfacet
facet normal 0.221695188131273 0.975116015435825 -0.0
outer loop
vertex 1.66316812296427 26.7516549909985 6.858
vertex -0.505756757588484 27.2447657612301 11.77925
vertex 1.66316812296427 26.7516549909985 11.77925
endloop
endfacet
facet normal -0.220248510511338 0.975443793161624 -0.0
outer loop
vertex -2.67541070550707 26.7548727979408 11.77925
vertex -0.505756757588484 27.2447657612301 6.858
vertex -2.67541070550707 26.7548727979408 6.858
endloop
endfacet
facet normal -0.220248510511338 0.975443793161624 -0.0
outer loop
vertex -0.505756757588484 27.2447657612301 6.858
vertex -2.67541070550707 26.7548727979408 11.77925
vertex -0.505756757588484 27.2447657612301 11.77925
endloop
endfacet
facet normal -0.619174516641592 0.785253410015933 -0.0
outer loop
vertex -4.4220291914738 25.3776592220281 11.77925
vertex -2.67541070550707 26.7548727979408 6.858
vertex -4.4220291914738 25.3776592220281 6.858
endloop
endfacet
facet normal -0.619174516641592 0.785253410015933 -0.0
outer loop
vertex -2.67541070550707 26.7548727979408 6.858
vertex -4.4220291914738 25.3776592220281 11.77925
vertex -2.67541070550707 26.7548727979408 11.77925
endloop
endfacet
facet normal -0.897166860580301 0.441691775196783 0.0
outer loop
vertex -4.4220291914738 25.3776592220281 11.77925
vertex -5.40447257830674 23.382114594397 6.858
vertex -5.40447257830674 23.382114594397 11.77925
endloop
endfacet
facet normal -0.897166860580301 0.441691775196783 0.0
outer loop
vertex -5.40447257830674 23.382114594397 6.858
vertex -4.4220291914738 25.3776592220281 11.77925
vertex -4.4220291914738 25.3776592220281 6.858
endloop
endfacet
facet normal -0.999929651088157 0.0118614027297001 0.0
outer loop
vertex -5.40447257830674 23.382114594397 11.77925
vertex -5.43085558411472 21.1579973973492 6.858
vertex -5.43085558411472 21.1579973973492 11.77925
endloop
endfacet
facet normal -0.999929651088157 0.0118614027297001 0.0
outer loop
vertex -5.43085558411472 21.1579973973492 6.858
vertex -5.40447257830674 23.382114594397 11.77925
vertex -5.40447257830674 23.382114594397 6.858
endloop
endfacet
facet normal -0.907391841539162 -0.420285671785475 0.0
outer loop
vertex -5.43085558411472 21.1579973973492 11.77925
vertex -4.49602522952567 19.1397096137717 6.858
vertex -4.49602522952567 19.1397096137717 11.77925
endloop
endfacet
facet normal -0.907391841539162 -0.420285671785475 0.0
outer loop
vertex -4.49602522952567 19.1397096137717 6.858
vertex -5.43085558411472 21.1579973973492 11.77925
vertex -5.43085558411472 21.1579973973492 6.858
endloop
endfacet
facet normal -0.637627393149696 -0.770344927616924 0.0
outer loop
vertex -2.7825672884527 17.7214517904642 11.77925
vertex -4.49602522952567 19.1397096137717 6.858
vertex -2.7825672884527 17.7214517904642 6.858
endloop
endfacet
facet normal -0.637627393149696 -0.770344927616924 0.0
outer loop
vertex -4.49602522952567 19.1397096137717 6.858
vertex -2.7825672884527 17.7214517904642 11.77925
vertex -4.49602522952567 19.1397096137717 11.77925
endloop
endfacet
facet normal 0.981847911789712 0.189669918843714 1.93499497677869e-019
outer loop
vertex 1.75692490577911 17.7180849714954 6.858
vertex 1.93049830976703 16.8195625000001 11.77925
vertex 1.93049830976703 16.8195625000001 6.858
endloop
endfacet
facet normal 0.981847911789712 0.189669918843714 1.93499497677869e-019
outer loop
vertex 1.93049830976703 16.8195625000001 11.77925
vertex 1.75692490577911 17.7180849714954 6.858
vertex 1.75692490577911 17.7180849714954 11.77925
endloop
endfacet
facet normal -0.951923772702656 0.306334997941049 -5.99528119664231e-019
outer loop
vertex -2.7825672884527 17.7214517904642 11.77925
vertex -3.07280087843121 16.8195625000001 6.858
vertex -3.07280087843121 16.8195625000001 11.77925
endloop
endfacet
facet normal -0.951923772702656 0.306334997941049 -5.99528119664231e-019
outer loop
vertex -3.07280087843121 16.8195625000001 6.858
vertex -2.7825672884527 17.7214517904642 11.77925
vertex -2.7825672884527 17.7214517904642 6.858
endloop
endfacet
facet normal 1.86119372810054e-018 1.29479044148124e-016 -1.0
outer loop
vertex -5.40447257830674 23.382114594397 6.858
vertex -4.49602522952567 19.1397096137717 6.858
vertex -5.43085558411472 21.1579973973492 6.858
endloop
endfacet
facet normal 1.86119372810054e-018 1.29479044148124e-016 -1.0
outer loop
vertex -4.49602522952567 19.1397096137717 6.858
vertex -5.40447257830674 23.382114594397 6.858
vertex -4.4220291914738 25.3776592220281 6.858
endloop
endfacet
facet normal 1.86119372810054e-018 1.29479044148124e-016 -1.0
outer loop
vertex -4.49602522952567 19.1397096137717 6.858
vertex -4.4220291914738 25.3776592220281 6.858
vertex -2.7825672884527 17.7214517904642 6.858
endloop
endfacet
facet normal 1.86119372810054e-018 1.29479044148124e-016 -1.0
outer loop
vertex -2.7825672884527 17.7214517904642 6.858
vertex -4.4220291914738 25.3776592220281 6.858
vertex -3.03339884373584 21.6713767728593 6.858
endloop
endfacet
facet normal 1.86119372810054e-018 1.29479044148124e-016 -1.0
outer loop
vertex -2.7825672884527 17.7214517904642 6.858
vertex -3.03339884373584 21.6713767728593 6.858
vertex -2.55397361812301 20.6363033274548 6.858
endloop
endfacet
facet normal 1.86119372810054e-018 1.29479044148124e-016 -1.0
outer loop
vertex -3.07280087843121 16.8195625000001 6.858
vertex -3.50161554023297 15.5495625000001 6.858
vertex -3.50161554023297 16.8195625000001 6.858
endloop
endfacet
facet normal 1.86119372810054e-018 1.29479044148124e-016 -1.0
outer loop
vertex -3.50161554023297 15.5495625000001 6.858
vertex -3.07280087843121 16.8195625000001 6.858
vertex -2.23161554023298 15.5495625000001 6.858
endloop
endfacet
facet normal 1.86119372810054e-018 1.29479044148124e-016 -1.0
outer loop
vertex -2.23161554023298 15.5495625000001 6.858
vertex -3.07280087843121 16.8195625000001 6.858
vertex -2.7825672884527 17.7214517904642 6.858
endloop
endfacet
facet normal 1.86119372810054e-018 1.29479044148124e-016 -1.0
outer loop
vertex -2.23161554023298 15.5495625000001 6.858
vertex -2.7825672884527 17.7214517904642 6.858
vertex -2.55397361812301 20.6363033274548 6.858
endloop
endfacet
facet normal 1.86119372810054e-018 1.29479044148124e-016 -1.0
outer loop
vertex -2.23161554023298 15.5495625000001 6.858
vertex -2.55397361812301 20.6363033274548 6.858
vertex -1.25787350610377 19.5634995663598 6.858
endloop
endfacet
facet normal 1.86119372810054e-018 1.29479044148124e-016 -1.0
outer loop
vertex -2.23161554023298 15.5495625000001 6.858
vertex -1.25787350610377 19.5634995663598 6.858
vertex -2.23161554023298 14.2795625 6.858
endloop
endfacet
facet normal 1.86119372810054e-018 1.29479044148124e-016 -1.0
outer loop
vertex -4.4220291914738 25.3776592220281 6.858
vertex -3.0198683903763 22.81200927773 6.858
vertex -3.03339884373584 21.6713767728593 6.858
endloop
endfacet
facet normal 1.86119372810054e-018 1.29479044148124e-016 -1.0
outer loop
vertex -3.0198683903763 22.81200927773 6.858
vertex -4.4220291914738 25.3776592220281 6.858
vertex -2.67541070550707 26.7548727979408 6.858
endloop
endfacet
facet normal 1.86119372810054e-018 1.29479044148124e-016 -1.0
outer loop
vertex -3.0198683903763 22.81200927773 6.858
vertex -2.67541070550707 26.7548727979408 6.858
vertex -2.51602494961506 23.8354189569579 6.858
endloop
endfacet
facet normal 1.86119372810054e-018 1.29479044148124e-016 -1.0
outer loop
vertex -2.51602494961506 23.8354189569579 6.858
vertex -2.67541070550707 26.7548727979408 6.858
vertex -0.505756757588484 27.2447657612301 6.858
endloop
endfacet
facet normal 1.86119372810054e-018 1.29479044148124e-016 -1.0
outer loop
vertex -2.51602494961506 23.8354189569579 6.858
vertex -0.505756757588484 27.2447657612301 6.858
vertex -1.62027637065255 24.5417192242821 6.858
endloop
endfacet
facet normal 1.86119372810054e-018 1.29479044148124e-016 -1.0
outer loop
vertex -1.62027637065255 24.5417192242821 6.858
vertex -0.505756757588484 27.2447657612301 6.858
vertex -0.507575196181268 24.7929595090013 6.858
endloop
endfacet
facet normal 1.86119372810054e-018 1.29479044148124e-016 -1.0
outer loop
vertex -0.507575196181268 24.7929595090013 6.858
vertex -0.505756757588484 27.2447657612301 6.858
vertex 0.604752078058134 24.5400689806719 6.858
endloop
endfacet
facet normal 1.86119372810054e-018 1.29479044148124e-016 -1.0
outer loop
vertex 0.604752078058134 24.5400689806719 6.858
vertex -0.505756757588484 27.2447657612301 6.858
vertex 1.66316812296427 26.7516549909985 6.858
endloop
endfacet
facet normal 1.86119372810054e-018 1.29479044148124e-016 -1.0
outer loop
vertex 0.604752078058134 24.5400689806719 6.858
vertex 1.66316812296427 26.7516549909985 6.858
vertex 1.49945198440201 23.8324407859794 6.858
endloop
endfacet
facet normal 1.86119372810054e-018 1.29479044148124e-016 -1.0
outer loop
vertex 1.49945198440201 23.8324407859794 6.858
vertex 1.66316812296427 26.7516549909985 6.858
vertex 2.00177680095858 22.8082848588828 6.858
endloop
endfacet
facet normal 1.86119372810054e-018 1.29479044148124e-016 -1.0
outer loop
vertex 2.00177680095858 22.8082848588828 6.858
vertex 1.66316812296427 26.7516549909985 6.858
vertex 3.40774180414495 25.3718520919833 6.858
endloop
endfacet
facet normal 1.86119372810054e-018 1.29479044148124e-016 -1.0
outer loop
vertex 2.00177680095858 22.8082848588828 6.858
vertex 3.40774180414495 25.3718520919833 6.858
vertex 2.0136152876119 21.6676335385534 6.858
endloop
endfacet
facet normal 1.86119372810054e-018 1.29479044148124e-016 -1.0
outer loop
vertex 2.0136152876119 21.6676335385534 6.858
vertex 1.75692490577911 17.7180849714954 6.858
vertex 1.53265521815219 20.6332723850287 6.858
endloop
endfacet
facet normal 1.86119372810054e-018 1.29479044148124e-016 -1.0
outer loop
vertex 1.75692490577911 17.7180849714954 6.858
vertex 2.0136152876119 21.6676335385534 6.858
vertex 3.47248472780003 19.1337995847797 6.858
endloop
endfacet
facet normal 1.86119372810054e-018 1.29479044148124e-016 -1.0
outer loop
vertex 3.47248472780003 19.1337995847797 6.858
vertex 2.0136152876119 21.6676335385534 6.858
vertex 3.40774180414495 25.3718520919833 6.858
endloop
endfacet
facet normal 1.86119372810054e-018 1.29479044148124e-016 -1.0
outer loop
vertex 3.47248472780003 19.1337995847797 6.858
vertex 3.40774180414495 25.3718520919833 6.858
vertex 4.38722402846928 23.374852357023 6.858
endloop
endfacet
facet normal 1.86119372810054e-018 1.29479044148124e-016 -1.0
outer loop
vertex 3.47248472780003 19.1337995847797 6.858
vertex 4.38722402846928 23.374852357023 6.858
vertex 4.41030787154776 21.1506984717471 6.858
endloop
endfacet
facet normal 1.86119372810054e-018 1.29479044148124e-016 -1.0
outer loop
vertex 1.53265521815219 20.6332723850287 6.858
vertex 0.943384459767027 15.5495625000001 6.858
vertex 0.234965193671845 19.5623923681454 6.858
endloop
endfacet
facet normal 1.86119372810054e-018 1.29479044148124e-016 -1.0
outer loop
vertex 0.943384459767027 15.5495625000001 6.858
vertex 1.53265521815219 20.6332723850287 6.858
vertex 1.75692490577911 17.7180849714954 6.858
endloop
endfacet
facet normal 1.86119372810054e-018 1.29479044148124e-016 -1.0
outer loop
vertex 0.943384459767027 15.5495625000001 6.858
vertex 1.75692490577911 17.7180849714954 6.858
vertex 1.93049830976703 16.8195625000001 6.858
endloop
endfacet
facet normal 1.86119372810054e-018 1.29479044148124e-016 -1.0
outer loop
vertex 0.943384459767027 15.5495625000001 6.858
vertex 1.93049830976703 16.8195625000001 6.858
vertex 2.21338445976703 15.5495625000001 6.858
endloop
endfacet
facet normal 1.86119372810054e-018 1.29479044148124e-016 -1.0
outer loop
vertex 2.21338445976703 15.5495625000001 6.858
vertex 1.93049830976703 16.8195625000001 6.858
vertex 2.21338445976703 16.8195625000001 6.858
endloop
endfacet
facet normal 1.86119372810054e-018 1.29479044148124e-016 -1.0
outer loop
vertex -2.23161554023298 14.2795625 6.858
vertex -3.50161554023297 9.96156250000005 6.858
vertex -3.50161554023297 14.2795625 6.858
endloop
endfacet
facet normal 1.86119372810054e-018 1.29479044148124e-016 -1.0
outer loop
vertex -3.50161554023297 9.96156250000005 6.858
vertex -2.23161554023298 14.2795625 6.858
vertex 2.21338445976703 9.96156250000005 6.858
endloop
endfacet
facet normal 1.86119372810054e-018 1.29479044148124e-016 -1.0
outer loop
vertex 2.21338445976703 9.96156250000005 6.858
vertex -2.23161554023298 14.2795625 6.858
vertex -1.25787350610377 19.5634995663598 6.858
endloop
endfacet
facet normal 1.86119372810054e-018 1.29479044148124e-016 -1.0
outer loop
vertex 2.21338445976703 9.96156250000005 6.858
vertex -1.25787350610377 19.5634995663598 6.858
vertex 0.943384459767027 14.2795625 6.858
endloop
endfacet
facet normal 1.86119372810054e-018 1.29479044148124e-016 -1.0
outer loop
vertex 0.943384459767027 14.2795625 6.858
vertex -1.25787350610377 19.5634995663598 6.858
vertex 0.234965193671845 19.5623923681454 6.858
endloop
endfacet
facet normal 1.86119372810054e-018 1.29479044148124e-016 -1.0
outer loop
vertex 0.943384459767027 14.2795625 6.858
vertex 0.234965193671845 19.5623923681454 6.858
vertex 0.943384459767027 15.5495625000001 6.858
endloop
endfacet
facet normal 1.86119372810054e-018 1.29479044148124e-016 -1.0
outer loop
vertex 2.21338445976703 9.96156250000005 6.858
vertex 0.943384459767027 14.2795625 6.858
vertex 2.21338445976703 14.2795625 6.858
endloop
endfacet
facet normal -0.221695188131268 -0.975116015435826 0.0
outer loop
vertex 0.604752078058134 24.5400689806719 11.77925
vertex -0.507575196181268 24.7929595090013 6.858
vertex 0.604752078058134 24.5400689806719 6.858
endloop
endfacet
facet normal -0.221695188131268 -0.975116015435826 0.0
outer loop
vertex -0.507575196181268 24.7929595090013 6.858
vertex 0.604752078058134 24.5400689806719 11.77925
vertex -0.507575196181268 24.7929595090013 11.77925
endloop
endfacet
facet normal -0.620338637376711 -0.784334096528773 0.0
outer loop
vertex 1.49945198440201 23.8324407859794 11.77925
vertex 0.604752078058134 24.5400689806719 6.858
vertex 1.49945198440201 23.8324407859794 6.858
endloop
endfacet
facet normal -0.620338637376711 -0.784334096528773 0.0
outer loop
vertex 0.604752078058134 24.5400689806719 6.858
vertex 1.49945198440201 23.8324407859794 11.77925
vertex 0.604752078058134 24.5400689806719 11.77925
endloop
endfacet
facet normal -0.897821054957277 -0.440360481055467 0.0
outer loop
vertex 1.49945198440201 23.8324407859794 11.77925
vertex 2.00177680095858 22.8082848588828 6.858
vertex 2.00177680095858 22.8082848588828 11.77925
endloop
endfacet
facet normal -0.897821054957277 -0.440360481055467 0.0
outer loop
vertex 2.00177680095858 22.8082848588828 6.858
vertex 1.49945198440201 23.8324407859794 11.77925
vertex 1.49945198440201 23.8324407859794 6.858
endloop
endfacet
facet normal -0.999946145563893 -0.0103781487710655 0.0
outer loop
vertex 2.00177680095858 22.8082848588828 11.77925
vertex 2.0136152876119 21.6676335385534 6.858
vertex 2.0136152876119 21.6676335385534 11.77925
endloop
endfacet
facet normal -0.999946145563893 -0.0103781487710655 0.0
outer loop
vertex 2.0136152876119 21.6676335385534 6.858
vertex 2.00177680095858 22.8082848588828 11.77925
vertex 2.00177680095858 22.8082848588828 6.858
endloop
endfacet
facet normal -0.906767414506013 0.421631184793155 0.0
outer loop
vertex 2.0136152876119 21.6676335385534 11.77925
vertex 1.53265521815219 20.6332723850287 6.858
vertex 1.53265521815219 20.6332723850287 11.77925
endloop
endfacet
facet normal -0.906767414506013 0.421631184793155 0.0
outer loop
vertex 1.53265521815219 20.6332723850287 6.858
vertex 2.0136152876119 21.6676335385534 11.77925
vertex 2.0136152876119 21.6676335385534 6.858
endloop
endfacet
facet normal -0.636484004161646 0.771289901688307 -6.91941036425554e-018
outer loop
vertex 0.234965193671845 19.5623923681454 11.77925
vertex 1.53265521815219 20.6332723850287 6.858
vertex 0.234965193671845 19.5623923681454 6.858
endloop
endfacet
facet normal -0.636484004161646 0.771289901688307 -6.91941036425554e-018
outer loop
vertex 1.53265521815219 20.6332723850287 6.858
vertex 0.234965193671845 19.5623923681454 11.77925
vertex 1.53265521815219 20.6332723850287 11.77925
endloop
endfacet
facet normal 0.000741672834469291 0.999999724960665 -0.0
outer loop
vertex -1.25787350610377 19.5634995663598 11.77925
vertex 0.234965193671845 19.5623923681454 6.858
vertex -1.25787350610377 19.5634995663598 6.858
endloop
endfacet
facet normal 0.000741672834469291 0.999999724960665 -0.0
outer loop
vertex 0.234965193671845 19.5623923681454 6.858
vertex -1.25787350610377 19.5634995663598 11.77925
vertex 0.234965193671845 19.5623923681454 11.77925
endloop
endfacet
facet normal 0.637627393149689 0.770344927616929 -7.06646111683596e-018
outer loop
vertex -2.55397361812301 20.6363033274548 11.77925
vertex -1.25787350610377 19.5634995663598 6.858
vertex -2.55397361812301 20.6363033274548 6.858
endloop
endfacet
facet normal 0.637627393149689 0.770344927616929 -7.06646111683596e-018
outer loop
vertex -1.25787350610377 19.5634995663598 6.858
vertex -2.55397361812301 20.6363033274548 11.77925
vertex -1.25787350610377 19.5634995663598 11.77925
endloop
endfacet
facet normal 0.907391841539164 0.420285671785471 -0.0
outer loop
vertex -3.03339884373584 21.6713767728593 6.858
vertex -2.55397361812301 20.6363033274548 11.77925
vertex -2.55397361812301 20.6363033274548 6.858
endloop
endfacet
facet normal 0.907391841539164 0.420285671785471 -0.0
outer loop
vertex -2.55397361812301 20.6363033274548 11.77925
vertex -3.03339884373584 21.6713767728593 6.858
vertex -3.03339884373584 21.6713767728593 11.77925
endloop
endfacet
facet normal 0.999929651088157 -0.0118614027297152 -0.0
outer loop
vertex -3.0198683903763 22.81200927773 6.858
vertex -3.03339884373584 21.6713767728593 11.77925
vertex -3.03339884373584 21.6713767728593 6.858
endloop
endfacet
facet normal 0.999929651088157 -0.0118614027297152 -0.0
outer loop
vertex -3.03339884373584 21.6713767728593 11.77925
vertex -3.0198683903763 22.81200927773 6.858
vertex -3.0198683903763 22.81200927773 11.77925
endloop
endfacet
facet normal 0.897166860580309 -0.441691775196768 -0.0
outer loop
vertex -2.51602494961506 23.8354189569579 6.858
vertex -3.0198683903763 22.81200927773 11.77925
vertex -3.0198683903763 22.81200927773 6.858
endloop
endfacet
facet normal 0.897166860580309 -0.441691775196768 -0.0
outer loop
vertex -3.0198683903763 22.81200927773 11.77925
vertex -2.51602494961506 23.8354189569579 6.858
vertex -2.51602494961506 23.8354189569579 11.77925
endloop
endfacet
facet normal 0.619174516641579 -0.785253410015943 0.0
outer loop
vertex -1.62027637065255 24.5417192242821 11.77925
vertex -2.51602494961506 23.8354189569579 6.858
vertex -1.62027637065255 24.5417192242821 6.858
endloop
endfacet
facet normal 0.619174516641579 -0.785253410015943 0.0
outer loop
vertex -2.51602494961506 23.8354189569579 6.858
vertex -1.62027637065255 24.5417192242821 11.77925
vertex -2.51602494961506 23.8354189569579 11.77925
endloop
endfacet
facet normal 0.220248510511337 -0.975443793161624 0.0
outer loop
vertex -0.507575196181268 24.7929595090013 11.77925
vertex -1.62027637065255 24.5417192242821 6.858
vertex -0.507575196181268 24.7929595090013 6.858
endloop
endfacet
facet normal 0.220248510511337 -0.975443793161624 0.0
outer loop
vertex -1.62027637065255 24.5417192242821 6.858
vertex -0.507575196181268 24.7929595090013 11.77925
vertex -1.62027637065255 24.5417192242821 11.77925
endloop
endfacet
facet normal -1.62528430747648e-018 -7.99967206987393e-017 1.0
outer loop
vertex -2.23161554023298 15.5495625 11.77925
vertex -3.50161554023297 16.8195625 11.77925
vertex -3.50161554023297 15.5495625 11.77925
endloop
endfacet
facet normal -1.62528430747648e-018 -7.99967206987393e-017 1.0
outer loop
vertex -3.50161554023297 16.8195625 11.77925
vertex -2.23161554023298 15.5495625 11.77925
vertex -3.07280087843121 16.8195625000001 11.77925
endloop
endfacet
facet normal -1.62528430747648e-018 -7.99967206987393e-017 1.0
outer loop
vertex -3.07280087843121 16.8195625000001 11.77925
vertex -2.23161554023298 15.5495625 11.77925
vertex -2.7825672884527 17.7214517904642 11.77925
endloop
endfacet
facet normal -1.62528430747648e-018 -7.99967206987393e-017 1.0
outer loop
vertex -2.7825672884527 17.7214517904642 11.77925
vertex -2.23161554023298 15.5495625 11.77925
vertex -2.55397361812301 20.6363033274548 11.77925
endloop
endfacet
facet normal -1.62528430747648e-018 -7.99967206987393e-017 1.0
outer loop
vertex -2.55397361812301 20.6363033274548 11.77925
vertex -2.23161554023298 15.5495625 11.77925
vertex -1.25787350610377 19.5634995663598 11.77925
endloop
endfacet
facet normal -1.62528430747648e-018 -7.99967206987393e-017 1.0
outer loop
vertex -4.49602522952567 19.1397096137717 11.77925
vertex -5.40447257830674 23.382114594397 11.77925
vertex -5.43085558411472 21.1579973973492 11.77925
endloop
endfacet
facet normal -1.62528430747648e-018 -7.99967206987393e-017 1.0
outer loop
vertex -5.40447257830674 23.382114594397 11.77925
vertex -4.49602522952567 19.1397096137717 11.77925
vertex -4.4220291914738 25.3776592220281 11.77925
endloop
endfacet
facet normal -1.62528430747648e-018 -7.99967206987393e-017 1.0
outer loop
vertex -4.4220291914738 25.3776592220281 11.77925
vertex -4.49602522952567 19.1397096137717 11.77925
vertex -2.7825672884527 17.7214517904642 11.77925
endloop
endfacet
facet normal -1.62528430747648e-018 -7.99967206987393e-017 1.0
outer loop
vertex -4.4220291914738 25.3776592220281 11.77925
vertex -2.7825672884527 17.7214517904642 11.77925
vertex -3.03339884373584 21.6713767728593 11.77925
endloop
endfacet
facet normal -1.62528430747648e-018 -7.99967206987393e-017 1.0
outer loop
vertex -3.03339884373584 21.6713767728593 11.77925
vertex -2.7825672884527 17.7214517904642 11.77925
vertex -2.55397361812301 20.6363033274548 11.77925
endloop
endfacet
facet normal -1.62528430747648e-018 -7.99967206987393e-017 1.0
outer loop
vertex 2.21338445976703 9.96156250000005 11.77925
vertex -3.50161554023297 14.2795625 11.77925
vertex -3.50161554023297 9.96156250000005 11.77925
endloop
endfacet
facet normal -1.62528430747648e-018 -7.99967206987393e-017 1.0
outer loop
vertex -3.50161554023297 14.2795625 11.77925
vertex 2.21338445976703 9.96156250000005 11.77925
vertex -2.23161554023298 14.2795625 11.77925
endloop
endfacet
facet normal -1.62528430747648e-018 -7.99967206987393e-017 1.0
outer loop
vertex -2.23161554023298 14.2795625 11.77925
vertex 2.21338445976703 9.96156250000005 11.77925
vertex -2.23161554023298 15.5495625 11.77925
endloop
endfacet
facet normal -1.62528430747648e-018 -7.99967206987393e-017 1.0
outer loop
vertex -2.23161554023298 15.5495625 11.77925
vertex 2.21338445976703 9.96156250000005 11.77925
vertex -1.25787350610377 19.5634995663598 11.77925
endloop
endfacet
facet normal -1.62528430747648e-018 -7.99967206987393e-017 1.0
outer loop
vertex -1.25787350610377 19.5634995663598 11.77925
vertex 2.21338445976703 9.96156250000005 11.77925
vertex 0.943384459767027 14.2795625 11.77925
endloop
endfacet
facet normal -1.62528430747648e-018 -7.99967206987393e-017 1.0
outer loop
vertex -1.25787350610377 19.5634995663598 11.77925
vertex 0.943384459767027 14.2795625 11.77925
vertex 0.234965193671845 19.5623923681454 11.77925
endloop
endfacet
facet normal -1.62528430747648e-018 -7.99967206987393e-017 1.0
outer loop
vertex 0.943384459767027 14.2795625 11.77925
vertex 2.21338445976703 9.96156250000005 11.77925
vertex 2.21338445976703 14.2795625 11.77925
endloop
endfacet
facet normal -1.62528430747648e-018 -7.99967206987393e-017 1.0
outer loop
vertex 0.234965193671845 19.5623923681454 11.77925
vertex 0.943384459767027 15.5495625 11.77925
vertex 1.53265521815219 20.6332723850287 11.77925
endloop
endfacet
facet normal -1.62528430747648e-018 -7.99967206987393e-017 1.0
outer loop
vertex 0.943384459767027 15.5495625 11.77925
vertex 0.234965193671845 19.5623923681454 11.77925
vertex 0.943384459767027 14.2795625 11.77925
endloop
endfacet
facet normal -1.62528430747648e-018 -7.99967206987393e-017 1.0
outer loop
vertex 1.53265521815219 20.6332723850287 11.77925
vertex 0.943384459767027 15.5495625 11.77925
vertex 1.75692490577911 17.7180849714954 11.77925
endloop
endfacet
facet normal -1.62528430747648e-018 -7.99967206987393e-017 1.0
outer loop
vertex 1.75692490577911 17.7180849714954 11.77925
vertex 0.943384459767027 15.5495625 11.77925
vertex 1.93049830976703 16.8195625000001 11.77925
endloop
endfacet
facet normal -1.62528430747648e-018 -7.99967206987393e-017 1.0
outer loop
vertex 1.93049830976703 16.8195625000001 11.77925
vertex 0.943384459767027 15.5495625 11.77925
vertex 2.21338445976703 15.5495625 11.77925
endloop
endfacet
facet normal -1.62528430747648e-018 -7.99967206987393e-017 1.0
outer loop
vertex 1.93049830976703 16.8195625000001 11.77925
vertex 2.21338445976703 15.5495625 11.77925
vertex 2.21338445976703 16.8195625 11.77925
endloop
endfacet
facet normal -1.62528430747648e-018 -7.99967206987393e-017 1.0
outer loop
vertex 1.75692490577911 17.7180849714954 11.77925
vertex 2.0136152876119 21.6676335385534 11.77925
vertex 1.53265521815219 20.6332723850287 11.77925
endloop
endfacet
facet normal -1.62528430747648e-018 -7.99967206987393e-017 1.0
outer loop
vertex 2.0136152876119 21.6676335385534 11.77925
vertex 1.75692490577911 17.7180849714954 11.77925
vertex 3.47248472780003 19.1337995847797 11.77925
endloop
endfacet
facet normal -1.62528430747648e-018 -7.99967206987393e-017 1.0
outer loop
vertex 2.0136152876119 21.6676335385534 11.77925
vertex 3.47248472780003 19.1337995847797 11.77925
vertex 3.40774180414495 25.3718520919833 11.77925
endloop
endfacet
facet normal -1.62528430747648e-018 -7.99967206987393e-017 1.0
outer loop
vertex 3.40774180414495 25.3718520919833 11.77925
vertex 3.47248472780003 19.1337995847797 11.77925
vertex 4.38722402846928 23.374852357023 11.77925
endloop
endfacet
facet normal -1.62528430747648e-018 -7.99967206987393e-017 1.0
outer loop
vertex 4.38722402846928 23.374852357023 11.77925
vertex 3.47248472780003 19.1337995847797 11.77925
vertex 4.41030787154776 21.1506984717471 11.77925
endloop
endfacet
facet normal -1.62528430747648e-018 -7.99967206987393e-017 1.0
outer loop
vertex -4.4220291914738 25.3776592220281 11.77925
vertex -3.0198683903763 22.81200927773 11.77925
vertex -2.67541070550707 26.7548727979408 11.77925
endloop
endfacet
facet normal -1.62528430747648e-018 -7.99967206987393e-017 1.0
outer loop
vertex -3.0198683903763 22.81200927773 11.77925
vertex -4.4220291914738 25.3776592220281 11.77925
vertex -3.03339884373584 21.6713767728593 11.77925
endloop
endfacet
facet normal -1.62528430747648e-018 -7.99967206987393e-017 1.0
outer loop
vertex -2.67541070550707 26.7548727979408 11.77925
vertex -3.0198683903763 22.81200927773 11.77925
vertex -2.51602494961506 23.8354189569579 11.77925
endloop
endfacet
facet normal -1.62528430747648e-018 -7.99967206987393e-017 1.0
outer loop
vertex -2.67541070550707 26.7548727979408 11.77925
vertex -2.51602494961506 23.8354189569579 11.77925
vertex -0.505756757588484 27.2447657612301 11.77925
endloop
endfacet
facet normal -1.62528430747648e-018 -7.99967206987393e-017 1.0
outer loop
vertex -0.505756757588484 27.2447657612301 11.77925
vertex -2.51602494961506 23.8354189569579 11.77925
vertex -1.62027637065255 24.5417192242821 11.77925
endloop
endfacet
facet normal -1.62528430747648e-018 -7.99967206987393e-017 1.0
outer loop
vertex -0.505756757588484 27.2447657612301 11.77925
vertex -1.62027637065255 24.5417192242821 11.77925
vertex -0.507575196181268 24.7929595090013 11.77925
endloop
endfacet
facet normal -1.62528430747648e-018 -7.99967206987393e-017 1.0
outer loop
vertex -0.505756757588484 27.2447657612301 11.77925
vertex -0.507575196181268 24.7929595090013 11.77925
vertex 0.604752078058134 24.5400689806719 11.77925
endloop
endfacet
facet normal -1.62528430747648e-018 -7.99967206987393e-017 1.0
outer loop
vertex -0.505756757588484 27.2447657612301 11.77925
vertex 0.604752078058134 24.5400689806719 11.77925
vertex 1.66316812296427 26.7516549909985 11.77925
endloop
endfacet
facet normal -1.62528430747648e-018 -7.99967206987393e-017 1.0
outer loop
vertex 1.66316812296427 26.7516549909985 11.77925
vertex 0.604752078058134 24.5400689806719 11.77925
vertex 1.49945198440201 23.8324407859794 11.77925
endloop
endfacet
facet normal -1.62528430747648e-018 -7.99967206987393e-017 1.0
outer loop
vertex 1.66316812296427 26.7516549909985 11.77925
vertex 1.49945198440201 23.8324407859794 11.77925
vertex 2.00177680095858 22.8082848588828 11.77925
endloop
endfacet
facet normal -1.62528430747648e-018 -7.99967206987393e-017 1.0
outer loop
vertex 1.66316812296427 26.7516549909985 11.77925
vertex 2.00177680095858 22.8082848588828 11.77925
vertex 3.40774180414495 25.3718520919833 11.77925
endloop
endfacet
facet normal -1.62528430747648e-018 -7.99967206987393e-017 1.0
outer loop
vertex 3.40774180414495 25.3718520919833 11.77925
vertex 2.00177680095858 22.8082848588828 11.77925
vertex 2.0136152876119 21.6676335385534 11.77925
endloop
endfacet
endsolid CurtainSlideV180
